<?xml version="1.0" encoding="utf-8"?>
<!-- Generator: Adobe Illustrator 21.0.2, SVG Export Plug-In . SVG Version: 6.00 Build 0)  -->
<svg version="1.1" id="Layer_1" xmlns="http://www.w3.org/2000/svg" xmlns:xlink="http://www.w3.org/1999/xlink" x="0px" y="0px"
	 viewBox="0 0 30 30" style="enable-background:new 0 0 30 30;" xml:space="preserve">
<style type="text/css">
	.st0{fill:#E83B5E;}
</style>
<g>
	<g>
		<g>
			<g id="XMLID_77_">
				<g>
					<path id="XMLID_78_" class="st0" d="M20.8,29.9H9.2c-5,0-9.1-4.1-9.1-9.1V9.1c0-5,4.1-9.1,9.1-9.1h11.6c5,0,9.1,4.1,9.1,9.1
						v11.7C29.9,25.9,25.8,29.9,20.8,29.9z M9.2,3C5.8,3,3,5.7,3,9.1v11.7C3,24.3,5.8,27,9.2,27h11.6c3.4,0,6.2-2.8,6.2-6.2V9.1
						C27,5.7,24.2,3,20.8,3L9.2,3z"/>
				</g>
			</g>
			<g id="XMLID_73_">
				<g>
					<path id="XMLID_74_" class="st0" d="M15,22.6c-4.2,0-7.6-3.4-7.6-7.6s3.4-7.5,7.6-7.5s7.5,3.4,7.5,7.5S19.2,22.6,15,22.6z
						 M15,10.1c-2.7,0-4.9,2.2-4.9,4.9s2.2,4.9,4.9,4.9S20,17.7,20,15S17.8,10.1,15,10.1z"/>
				</g>
			</g>
			<g id="XMLID_72_">
				<circle class="st0" cx="23" cy="7.1" r="1.8"/>
			</g>
		</g>
	</g>
</g>
</svg>
