<?xml version="1.0" encoding="utf-8"?>
<!-- Generator: Adobe Illustrator 21.0.2, SVG Export Plug-In . SVG Version: 6.00 Build 0)  -->
<svg version="1.1" id="Layer_1" xmlns="http://www.w3.org/2000/svg" xmlns:xlink="http://www.w3.org/1999/xlink" x="0px" y="0px"
	 viewBox="0 0 30 30" style="enable-background:new 0 0 30 30;" xml:space="preserve">
<style type="text/css">
	.st0{fill:#575E67;}
</style>
<path class="st0" d="M20.8,0.1H9.2c-5,0-9.1,4.1-9.1,9.1v11.7c0,5,4.1,9.1,9.1,9.1h11.6c5,0,9.1-4.1,9.1-9.1V9.1
	C29.9,4.1,25.8,0.1,20.8,0.1z M27,20.8c0,3.4-2.8,6.2-6.2,6.2H9.2C5.8,27,3,24.3,3,20.8V9.1C3,5.7,5.8,3,9.2,3h11.6
	C24.2,3,27,5.7,27,9.1V20.8z"/>
<path class="st0" d="M15,7.5c-4.2,0-7.6,3.4-7.6,7.5c0,4.2,3.4,7.6,7.6,7.6c4.2,0,7.5-3.4,7.5-7.6S19.2,7.5,15,7.5z M15,19.9
	c-2.7,0-4.9-2.2-4.9-4.9c0-2.7,2.2-4.9,4.9-4.9c2.7,0,4.9,2.2,4.9,4.9C20,17.7,17.8,19.9,15,19.9z"/>
<circle class="st0" cx="23" cy="7.1" r="1.8"/>
</svg>
